<?xml version="1.0" standalone="no"?>
<!DOCTYPE svg PUBLIC "-//W3C//DTD SVG 20010904//EN"
 "http://www.w3.org/TR/2001/REC-SVG-20010904/DTD/svg10.dtd">
<svg version="1.0" xmlns="http://www.w3.org/2000/svg"
 width="512.000000pt" height="512.000000pt" viewBox="0 0 512.000000 512.000000"
 preserveAspectRatio="xMidYMid meet">

<g transform="translate(0.000000,512.000000) scale(0.100000,-0.100000)"
fill="#000000" stroke="none">
<path d="M120 4350 l0 -640 125 0 125 0 0 -1075 0 -1075 -125 0 -125 0 0 -640
0 -640 1143 0 c629 0 1265 -3 1413 -7 l270 -6 96 99 c53 54 108 114 123 132
l28 33 -34 35 c-63 66 -60 67 -166 -45 l-95 -101 -1319 0 -1319 0 0 500 0 500
125 0 125 0 0 1215 0 1215 -125 0 -125 0 0 500 0 500 1318 -1 1317 0 332 -357
333 -357 0 -565 0 -566 -135 -144 c-74 -80 -134 -148 -133 -152 2 -3 63 -69
136 -146 111 -118 132 -145 132 -171 0 -17 3 -31 8 -31 4 1 34 6 67 13 l60 13
3 45 c3 45 3 46 -107 164 l-110 118 109 116 110 116 -1 625 0 625 -372 397
-372 398 -1417 0 -1418 0 0 -640z"/>
<path d="M400 4350 l0 -360 125 0 125 0 0 -1355 0 -1355 -125 0 -125 0 0 -360
0 -360 1218 0 1218 0 49 53 c28 28 65 68 83 88 l33 36 -41 70 c-126 219 -170
475 -126 728 53 301 255 586 514 726 59 32 67 41 70 68 3 29 -9 45 -111 154
-63 67 -137 147 -165 178 l-50 55 162 170 162 169 3 510 3 510 -297 318 -296
317 -1215 0 -1214 0 0 -360z m2057 -479 l112 -119 0 -223 0 -224 -110 -118
-111 -117 -424 0 -424 0 0 453 c0 250 3 457 7 460 3 4 193 7 422 7 l416 0 112
-119z m1 -1635 l112 -113 0 -309 -1 -309 -112 -112 -112 -113 -422 0 -423 0 0
528 c0 291 3 532 7 535 3 4 194 7 423 7 l416 0 112 -114z"/>
<path d="M1650 3530 l0 -320 319 0 319 0 66 72 66 72 0 176 0 175 -71 73 -72
72 -313 0 -314 0 0 -320z m603 142 c26 -27 27 -32 27 -144 0 -111 -1 -118 -26
-147 l-26 -31 -219 0 -219 0 0 175 0 175 218 0 218 0 27 -28z"/>
<path d="M1650 1815 l0 -395 318 0 318 0 67 68 67 68 0 260 0 260 -68 67 -68
67 -317 0 -317 0 0 -395z m609 219 c20 -25 21 -40 21 -222 l0 -196 -27 -28
-27 -28 -218 0 -218 0 0 250 0 250 224 0 225 0 20 -26z"/>
<path d="M4527 2144 c-7 -8 24 -71 50 -100 27 -31 99 -68 118 -60 25 9 14 28
-38 61 -25 17 -55 47 -67 68 -19 34 -46 47 -63 31z"/>
<path d="M3185 2096 c-60 -31 -105 -82 -105 -117 0 -32 35 -21 61 18 15 23 44
46 76 62 32 16 53 33 53 42 0 29 -25 28 -85 -5z"/>
<path d="M4470 2058 c0 -12 11 -40 24 -62 18 -32 39 -48 85 -71 45 -21 64 -26
72 -18 19 19 2 42 -44 62 -44 19 -81 56 -92 92 -9 27 -45 25 -45 -3z"/>
<path d="M3249 2024 c-74 -22 -147 -116 -102 -131 6 -2 27 13 47 35 22 24 53
44 79 52 51 15 67 27 60 46 -6 17 -24 17 -84 -2z"/>
<path d="M4400 1986 c0 -28 42 -107 64 -121 28 -18 118 -43 134 -38 6 3 12 13
12 23 0 13 -15 23 -53 35 -66 21 -67 21 -94 70 -22 41 -63 61 -63 31z"/>
<path d="M3285 1910 c-22 -4 -44 -16 -50 -25 -5 -10 -23 -31 -38 -47 -31 -33
-31 -51 0 -56 14 -2 31 9 51 34 27 32 40 39 94 49 52 9 63 14 63 31 0 15 -8
19 -40 21 -22 0 -58 -2 -80 -7z"/>
<path d="M4334 1876 c-7 -19 21 -78 49 -104 24 -22 132 -56 147 -47 6 3 10 14
10 24 0 18 -22 31 -80 47 -33 9 -56 29 -70 65 -13 31 -46 40 -56 15z"/>
<path d="M3267 1729 c-26 -24 -47 -51 -47 -61 0 -29 40 -22 76 13 30 29 38 31
106 33 71 1 73 2 73 26 0 24 -2 25 -81 28 l-80 3 -47 -42z"/>
<path d="M4260 1735 c-11 -13 -5 -23 36 -64 47 -46 52 -49 121 -55 77 -8 93
-4 93 20 0 19 -41 34 -91 34 -32 0 -47 7 -83 40 -48 44 -58 47 -76 25z"/>
<path d="M3310 1609 c-49 -36 -60 -48 -60 -65 0 -26 34 -23 77 6 42 28 49 30
107 24 52 -5 64 -4 69 9 8 22 -19 47 -51 47 -15 0 -43 3 -62 6 -29 4 -43 0
-80 -27z"/>
<path d="M4220 1561 c0 -21 73 -85 115 -101 57 -22 149 -3 143 29 -2 12 -18
17 -63 19 -49 3 -68 9 -107 38 -54 38 -88 44 -88 15z"/>
<path d="M3365 1471 c-66 -27 -85 -41 -85 -60 0 -30 24 -31 81 -4 50 24 57 25
113 15 63 -12 83 -6 73 22 -14 36 -123 52 -182 27z"/>
<path d="M4213 1393 c-4 -11 3 -24 23 -39 54 -44 75 -47 150 -27 59 15 70 22
72 42 4 23 2 23 -50 18 -30 -4 -62 -9 -71 -13 -9 -3 -31 3 -50 15 -41 25 -65
27 -74 4z"/>
<path d="M3370 1325 c-38 -16 -55 -29 -55 -41 0 -26 27 -28 91 -8 52 16 57 16
90 1 42 -21 60 -21 67 -4 8 20 -3 32 -50 56 -52 26 -73 25 -143 -4z"/>
<path d="M4397 1248 c-56 -19 -60 -19 -113 -2 -42 13 -58 14 -67 5 -19 -19 4
-42 65 -64 56 -20 58 -20 118 -2 65 20 84 34 78 61 -4 24 -15 24 -81 2z"/>
<path d="M3362 1200 c-42 -10 -57 -24 -48 -46 5 -14 15 -16 64 -11 51 6 62 3
107 -23 57 -34 80 -37 89 -13 8 20 -13 38 -89 77 -54 27 -68 29 -123 16z"/>
<path d="M4408 1095 c-36 -24 -37 -24 -93 -8 -52 15 -57 15 -72 0 -22 -22 -3
-45 46 -52 20 -4 46 -10 58 -15 35 -14 143 44 143 76 0 32 -32 31 -82 -1z"/>
<path d="M3300 1025 c-21 -25 0 -36 84 -44 63 -6 80 -11 104 -34 31 -30 60
-35 68 -12 8 19 -9 40 -60 77 -34 25 -48 28 -111 28 -53 0 -76 -4 -85 -15z"/>
<path d="M4470 993 c-8 -4 -29 -16 -45 -29 -28 -21 -38 -23 -101 -17 -116 9
-113 -38 3 -58 69 -12 98 -3 163 50 29 25 32 31 21 45 -14 17 -17 18 -41 9z"/>
<path d="M3287 913 c-4 -3 -7 -14 -7 -24 0 -18 7 -21 80 -34 24 -4 46 -18 70
-46 25 -29 40 -39 53 -34 26 11 20 36 -21 83 -29 34 -48 46 -82 53 -55 10 -85
11 -93 2z"/>
<path d="M4471 828 c-29 -29 -42 -34 -100 -38 -58 -4 -66 -8 -66 -25 0 -18 8
-20 73 -23 l72 -3 47 44 c32 30 44 49 40 61 -10 24 -30 20 -66 -16z"/>
<path d="M3220 805 c-16 -19 3 -45 33 -45 44 0 99 -24 112 -49 7 -14 23 -35
34 -45 19 -17 23 -18 36 -5 12 12 9 21 -18 66 -28 47 -38 55 -82 67 -92 26
-102 27 -115 11z"/>
<path d="M4501 706 c-25 -25 -43 -35 -78 -39 -52 -6 -66 -16 -57 -41 6 -15 14
-17 53 -11 25 4 58 13 73 21 42 22 90 73 84 90 -9 24 -40 16 -75 -20z"/>
<path d="M3183 714 c-8 -21 3 -29 62 -51 36 -13 57 -29 74 -56 25 -38 54 -48
64 -23 6 14 -35 79 -64 102 -11 10 -111 44 -126 44 -2 0 -6 -7 -10 -16z"/>
<path d="M4556 638 c-16 -21 -46 -40 -83 -54 -32 -12 -58 -27 -58 -34 0 -50
124 -14 176 51 31 39 33 69 5 69 -8 0 -26 -15 -40 -32z"/>
<path d="M3135 640 c-10 -16 12 -38 51 -50 19 -6 51 -32 73 -57 27 -32 44 -44
55 -40 9 4 16 13 16 21 0 28 -65 95 -114 115 -55 24 -72 26 -81 11z"/>
</g>
</svg>
